# xmcd CD database file
#
# Track frame offsets:
#	150
#	33130
#	52016
#	74315
#	98788
#	120348
#	152049
#	171134
#	192120
#	221895
#	256178
#
# Disc length: 3706 seconds
#
# Revision: 1
# Processed by: cddbd v1.5.1PL2 Copyright (c) Steve Scherf et al.
# Submitted via: CDex 1.51
#
DISCID=910e780b
DTITLE=Jesper Thilo - 40th Anniversary Collection
DYEAR=1998
DGENRE=Jazz
TTITLE0=I Wished On The Moon - Rainger - Parker
TTITLE1=Cotton Tail - Ellington
TTITLE2=The Starcrossed Lovers - Strayhorn
TTITLE3=There Will Never Be Another You - Warren - Gordon
TTITLE4=Duke's Place - Ellington - Bigard
TTITLE5=For Lena And Lennie - Quincy Jones
TTITLE6=Thou Swell - Rodgers - Hart
TTITLE7=Shorty George - Andy Gibson
TTITLE8=Rabbits Rest - T. Clausen
TTITLE9=Groove Merchant - J. Richardson
TTITLE10=Blue Light - Ellington
EXTD=YEAR: 1998
EXTT0=
EXTT1=
EXTT2=
EXTT3=
EXTT4=
EXTT5=
EXTT6=
EXTT7=
EXTT8=
EXTT9=
EXTT10=
PLAYORDER=
